<svg xmlns="http://www.w3.org/2000/svg" viewBox="0 0 458 215" width="458" height="215">
	<style>
		tspan { white-space:pre }
		.shp0 { fill: #f2f2f2 } 
		.shp1 { fill: #d8d8d8 } 
		.shp2 { fill: #eb5055 } 
		.shp3 { fill: #acacac } 
		.shp4 { fill: #fafafa } 
		.shp5 { fill: #bababa } 
		.shp6 { fill: #ffffff } 
	</style>
	<g id="Layer">
		<g id="Slider">
			<g id="iPhone Vertical">
				<path id="Base" class="shp0" d="M458.28 26.77L458.28 188.04C458.28 202.98 446.16 215.09 431.21 215.09L26.23 215.09C11.29 215.09 -0.83 202.98 -0.83 188.04L-0.83 26.77C-0.83 11.83 11.29 -0.28 26.23 -0.28L431.21 -0.28C446.16 -0.28 458.28 11.83 458.28 26.77Z" />
			</g>
		</g>
	</g>
	<g id="Layer">
		<g id="Slider">
			<g id="iPhone Horizontal">
				<g id="Cam">
					<path id="Outer Circle" class="shp1" d="M436.75 111.36C434.3 111.36 432.32 109.38 432.32 106.94C432.32 104.5 434.3 102.53 436.75 102.53C439.2 102.53 441.18 104.5 441.18 106.94C441.18 109.38 439.2 111.36 436.75 111.36Z" />
				</g>
			</g>
		</g>
	</g>
	<g id="Layer">
		<g id="Slider">
			<g id="iPhone Horizontal">
				<g id="Cam">
					<path id="Red Dot" class="shp2" d="M436.75 108.85C435.66 108.83 434.8 107.94 434.82 106.85C434.84 105.77 435.73 104.9 436.82 104.92C437.91 104.94 438.78 105.83 438.76 106.91C438.74 108 437.84 108.87 436.75 108.85Z" />
				</g>
			</g>
		</g>
	</g>
	<g id="Layer">
		<g id="Slider">
			<g id="iPhone Horizontal">
				<path id="Speaker" class="shp3" d="M422.08 91.59L422.08 122.59C422.08 123.97 420.96 125.09 419.58 125.09C418.2 125.09 417.08 123.97 417.08 122.59L417.08 91.59C417.08 90.21 418.2 89.09 419.58 89.09C420.96 89.09 422.08 90.21 422.08 91.59Z" />
			</g>
		</g>
	</g>
	<g id="Layer">
		<g id="Slider">
			<g id="iPhone Horizontal">
				<g id="Home Button">
					<path id="Circle" class="shp4" d="M31.73 128.89C20.17 128.89 10.8 119.55 10.8 108.02C10.8 96.49 20.17 87.14 31.73 87.14C43.29 87.14 52.66 96.49 52.66 108.02C52.66 119.55 43.29 128.89 31.73 128.89Z" />
				</g>
			</g>
		</g>
	</g>
	<g id="Layer">
		<g id="Slider">
			<g id="iPhone Horizontal">
				<g id="Home Button">
					<path id="Square" fill-rule="evenodd" class="shp5" d="M36 116.05L27.18 116.05C25.13 116.05 23.46 114.38 23.46 112.33L23.46 103.54C23.46 101.49 25.13 99.82 27.18 99.82L36 99.82C38.06 99.82 39.72 101.49 39.72 103.54L39.72 112.33C39.72 114.38 38.06 116.05 36 116.05ZM38.01 111.4L38.01 104.48C38.01 102.87 36.7 101.56 35.08 101.56L28.13 101.56C26.52 101.56 25.21 102.87 25.21 104.48L25.21 111.4C25.21 113.02 26.52 114.33 28.13 114.33L35.08 114.33C36.7 114.33 38.01 113.02 38.01 111.4Z" />
				</g>
			</g>
		</g>
	</g>
	<g id="Layer">
		<g id="Layer">
			<path id="canvas_background" class="shp6" d="M398.15 12.81L398.15 200.85L65.11 200.85L65.11 12.81L398.15 12.81Z" />
		</g>
		<g id="Layer">
		</g>
	</g>
</svg>